<?xml version="1.0" standalone="no"?>
<!DOCTYPE svg PUBLIC "-//W3C//DTD SVG 20010904//EN"
 "http://www.w3.org/TR/2001/REC-SVG-20010904/DTD/svg10.dtd">
<svg version="1.0" xmlns="http://www.w3.org/2000/svg"
 width="600.000000pt" height="600.000000pt" viewBox="0 0 600.000000 600.000000"
 preserveAspectRatio="xMidYMid meet">

<g transform="translate(0.000000,600.000000) scale(0.100000,-0.100000)"
fill="#000000" stroke="none">
<path d="M5760 4883 c-18 -108 -28 -196 -39 -351 -5 -74 -14 -182 -21 -240 -6
-59 -12 -140 -13 -181 l-2 -73 -104 -34 c-110 -36 -128 -39 -150 -25 -12 8
-11 19 2 72 17 66 40 325 36 391 -2 20 2 42 8 50 13 15 20 129 9 146 -4 6 -2
21 4 33 7 12 14 35 16 53 2 17 6 44 10 59 7 32 -20 71 -44 62 -8 -3 -20 -1
-26 5 -20 16 -56 -16 -56 -51 0 -19 -4 -28 -11 -23 -6 3 -9 15 -6 25 3 10 -1
23 -9 30 -14 12 -14 14 -33 -96 -47 -263 -68 -760 -44 -1085 7 -106 10 -115
28 -115 11 0 26 -4 32 -8 15 -10 27 -3 81 43 l41 36 -2 78 c-1 92 0 94 112
134 109 40 105 42 112 -68 4 -52 7 -152 8 -221 1 -107 4 -128 17 -133 9 -4 22
-2 29 4 7 6 15 6 21 0 7 -7 26 5 57 34 l47 43 0 334 c0 184 5 393 11 464 6 72
11 139 11 150 0 74 22 278 34 315 17 56 16 167 -3 198 -12 19 -22 22 -81 22
l-68 0 -14 -77z m27 -195 c-3 -7 -5 -2 -5 12 0 14 2 19 5 13 2 -7 2 -19 0 -25z
m-430 -90 c-2 -13 -4 -3 -4 22 0 25 2 35 4 23 2 -13 2 -33 0 -45z m400 -150
c-2 -13 -4 -5 -4 17 -1 22 1 32 4 23 2 -10 2 -28 0 -40z m-420 -145 c-2 -16
-4 -3 -4 27 0 30 2 43 4 28 2 -16 2 -40 0 -55z m3 -570 c-1 -24 -2 -26 -11
-10 -5 9 -7 22 -4 27 10 17 15 11 15 -17z"/>
<path d="M1573 4910 c-6 -24 -20 -25 -44 -4 -34 31 -35 17 -10 -636 9 -224 10
-350 4 -380 l-10 -45 -17 40 c-57 133 -96 238 -111 295 -10 36 -24 79 -31 97
-8 17 -14 40 -14 51 0 12 -4 23 -9 27 -6 3 -13 26 -17 50 -3 25 -10 48 -15 51
-5 3 -7 10 -4 15 4 5 -1 44 -9 87 -8 42 -15 88 -15 102 0 14 -5 64 -12 111
-12 94 -24 109 -97 123 -29 5 -35 3 -40 -16 -5 -20 -6 -20 -19 -2 -12 16 -15
17 -29 3 -12 -13 -17 -54 -24 -187 -4 -94 -11 -175 -14 -181 -8 -12 -26 -254
-32 -421 -2 -63 -9 -213 -15 -333 -13 -254 -9 -277 48 -277 50 0 113 64 114
117 1 21 5 106 11 188 5 83 11 203 14 268 3 64 9 117 13 117 12 0 28 -22 35
-50 4 -14 11 -34 15 -45 5 -11 16 -45 26 -75 10 -30 22 -59 26 -65 5 -5 9 -18
9 -30 0 -12 4 -25 9 -30 4 -6 21 -46 36 -90 15 -44 33 -93 40 -110 7 -16 25
-61 41 -100 15 -38 36 -79 46 -90 18 -19 20 -19 32 -3 9 13 16 14 24 6 8 -8
15 -6 27 6 9 9 22 16 29 16 19 0 60 50 78 95 25 61 37 172 41 375 6 246 -14
621 -38 713 -6 21 -4 27 9 27 12 0 16 10 16 43 -1 58 -18 128 -37 149 -23 25
-73 24 -80 -2z m-6 -352 c-3 -8 -6 -5 -6 6 -1 11 2 17 5 13 3 -3 4 -12 1 -19z
m0 -170 c-3 -8 -6 -5 -6 6 -1 11 2 17 5 13 3 -3 4 -12 1 -19z m-500 -135 c-2
-21 -4 -4 -4 37 0 41 2 58 4 38 2 -21 2 -55 0 -75z m150 15 c-3 -8 -6 -5 -6 6
-1 11 2 17 5 13 3 -3 4 -12 1 -19z m50 -140 c-3 -8 -6 -5 -6 6 -1 11 2 17 5
13 3 -3 4 -12 1 -19z m50 -140 c-3 -7 -5 -2 -5 12 0 14 2 19 5 13 2 -7 2 -19
0 -25z m50 -140 c-3 -7 -5 -2 -5 12 0 14 2 19 5 13 2 -7 2 -19 0 -25z m50
-130 c-3 -8 -6 -5 -6 6 -1 11 2 17 5 13 3 -3 4 -12 1 -19z m50 -130 c-3 -8 -6
-5 -6 6 -1 11 2 17 5 13 3 -3 4 -12 1 -19z"/>
<path d="M2385 4894 c-51 -27 -132 -121 -169 -198 -20 -40 -36 -81 -36 -89 0
-9 -4 -18 -9 -22 -5 -3 -13 -20 -17 -37 -3 -18 -10 -39 -14 -48 -23 -48 -40
-93 -40 -110 0 -10 -4 -22 -10 -25 -5 -3 -10 -17 -10 -31 0 -13 -6 -50 -14
-82 -27 -108 -36 -203 -36 -375 1 -189 12 -260 54 -331 32 -55 91 -86 162 -86
46 0 74 10 144 50 31 19 120 101 120 112 0 20 33 56 46 51 10 -4 14 -24 15
-72 1 -36 4 -90 7 -120 7 -58 10 -59 80 -52 5 1 31 21 57 44 44 41 47 46 40
78 -12 55 -12 528 0 592 8 43 20 68 42 90 41 44 48 76 21 104 -12 13 -30 23
-40 23 -11 0 -18 7 -18 20 0 11 -4 20 -9 20 -45 0 -313 -133 -363 -181 -33
-31 -38 -42 -38 -82 0 -37 5 -49 26 -66 28 -22 88 -28 99 -11 8 14 42 13 47
-1 4 -12 -24 -105 -36 -116 -3 -3 -6 -15 -6 -25 0 -10 -4 -26 -10 -36 -5 -9
-22 -44 -38 -77 -44 -89 -53 -106 -95 -163 -45 -61 -63 -59 -91 10 -10 24 -27
59 -37 79 -10 20 -16 39 -12 43 4 3 8 66 10 139 6 253 41 417 128 594 14 29
25 57 25 63 0 6 4 18 9 28 5 9 17 35 27 57 11 22 38 63 61 91 33 40 51 53 80
58 101 18 121 51 53 86 -49 25 -160 27 -205 4z m-218 -471 c-3 -10 -5 -2 -5
17 0 19 2 27 5 18 2 -10 2 -26 0 -35z m-20 -70 c-3 -10 -5 -2 -5 17 0 19 2 27
5 18 2 -10 2 -26 0 -35z m526 -40 c-7 -2 -19 -2 -25 0 -7 3 -2 5 12 5 14 0 19
-2 13 -5z m-556 -40 c-3 -10 -5 -4 -5 12 0 17 2 24 5 18 2 -7 2 -21 0 -30z
m450 -9 c-3 -3 -12 -4 -19 -1 -8 3 -5 6 6 6 11 1 17 -2 13 -5z m-47 -18 c0 -2
-7 -7 -16 -10 -8 -3 -12 -2 -9 4 6 10 25 14 25 6z m-40 -30 c0 -2 -9 -6 -20
-9 -11 -3 -20 -1 -20 4 0 5 9 9 20 9 11 0 20 -2 20 -4z m-383 -88 c-2 -13 -4
-5 -4 17 -1 22 1 32 4 23 2 -10 2 -28 0 -40z"/>
<path d="M3917 4900 c-37 -119 -51 -495 -38 -999 6 -222 11 -416 11 -431 0
-30 25 -47 45 -30 8 6 15 6 22 -1 8 -8 26 1 63 32 l52 44 -6 215 c-9 306 -10
827 -1 882 4 27 3 54 -3 64 -7 13 -6 29 5 56 18 45 11 117 -15 146 -24 28 -79
36 -91 14 -9 -16 -11 -16 -25 3 -12 16 -15 17 -19 5z m10 -212 c-3 -8 -6 -5
-6 6 -1 11 2 17 5 13 3 -3 4 -12 1 -19z m0 -110 c-3 -7 -5 -2 -5 12 0 14 2 19
5 13 2 -7 2 -19 0 -25z m0 -100 c-2 -13 -4 -5 -4 17 -1 22 1 32 4 23 2 -10 2
-28 0 -40z m0 -345 c-2 -21 -4 -6 -4 32 0 39 2 55 4 38 2 -18 2 -50 0 -70z m0
-185 c-2 -13 -4 -5 -4 17 -1 22 1 32 4 23 2 -10 2 -28 0 -40z m0 -145 c-2 -16
-4 -3 -4 27 0 30 2 43 4 28 2 -16 2 -40 0 -55z"/>
<path d="M4695 4890 c-27 -11 -65 -34 -84 -52 -35 -33 -121 -159 -121 -177 0
-6 -6 -25 -14 -43 -8 -18 -19 -67 -25 -108 -15 -97 3 -186 55 -285 20 -38 55
-105 78 -148 22 -43 46 -86 51 -95 56 -96 105 -186 105 -196 0 -7 3 -16 7 -20
11 -11 42 -138 43 -172 0 -41 -23 -50 -60 -24 -37 26 -129 135 -154 180 -37
69 -82 87 -129 50 -14 -11 -30 -20 -36 -20 -20 0 0 -94 38 -170 22 -46 57 -95
91 -130 50 -50 62 -57 117 -67 97 -18 200 16 294 97 l44 38 -2 82 c-3 143 -15
175 -169 437 -152 260 -175 341 -140 503 27 124 70 208 107 209 21 1 30 -97
28 -276 -2 -142 6 -164 61 -168 19 -2 38 2 41 7 4 6 21 12 38 13 45 4 71 30
65 65 -4 15 -1 31 5 34 16 10 14 212 -2 256 -39 108 -93 156 -212 189 -52 14
-61 14 -120 -9z m-164 -281 l-10 -24 0 26 c-1 14 2 29 6 33 12 12 14 -9 4 -35z"/>
<path d="M3195 4880 c-32 -12 -43 -32 -48 -80 l-4 -45 -1 47 c-2 44 -14 69
-26 50 -27 -43 -48 -469 -50 -1001 -1 -331 -1 -334 21 -357 12 -13 31 -24 42
-24 11 0 23 -4 26 -10 8 -12 67 -13 81 -1 5 4 34 16 64 27 30 10 59 22 64 26
6 4 17 8 25 8 21 0 182 80 209 103 39 36 27 77 -36 121 l-39 27 -59 -21 c-32
-12 -72 -28 -89 -35 -64 -27 -103 -38 -119 -32 -15 6 -16 31 -11 269 4 145 8
374 10 510 2 135 8 254 13 265 14 26 24 116 15 129 -9 13 -48 34 -60 33 -4 0
-17 -4 -28 -9z"/>
<path d="M440 4868 c-30 -5 -77 -16 -104 -24 -26 -8 -68 -14 -92 -14 -31 0
-46 -5 -50 -15 -5 -13 -9 -13 -21 -3 -12 10 -18 8 -33 -11 -12 -18 -19 -51
-24 -125 -3 -56 -10 -162 -16 -236 -5 -74 -9 -259 -9 -410 0 -219 3 -295 17
-376 31 -174 67 -207 222 -207 103 0 173 18 284 73 93 45 120 71 112 103 -5
22 -12 27 -36 27 -17 0 -38 -4 -48 -9 -9 -6 -51 -22 -92 -36 -41 -14 -90 -33
-108 -41 -77 -33 -142 -2 -142 68 0 22 -8 53 -17 68 -15 26 -15 31 -1 52 8 13
26 28 39 35 33 15 103 46 169 73 92 39 104 57 74 109 -19 33 -67 61 -102 61
-27 0 -115 -29 -128 -43 -12 -12 -54 -8 -59 6 -2 6 -6 103 -8 214 -3 146 0
219 10 265 7 35 12 81 11 103 -3 85 5 91 167 129 61 15 124 31 141 36 17 6 42
10 57 10 68 0 94 32 62 77 -36 51 -132 65 -275 41z"/>
<path d="M2857 2806 c-27 -20 -19 -70 11 -74 12 -2 22 -8 22 -13 0 -6 14 -1
30 11 34 24 38 49 12 73 -22 20 -51 21 -75 3z"/>
<path d="M3720 2401 l0 -421 40 0 40 0 0 195 c0 231 9 264 89 317 39 27 163
25 207 -3 72 -44 74 -52 74 -293 l0 -216 40 0 39 0 -3 193 c-4 201 -12 287
-27 287 -5 0 -9 6 -9 13 0 22 -42 62 -85 82 -55 26 -225 21 -225 -6 0 -5 -5
-9 -10 -9 -6 0 -21 -11 -34 -25 -13 -14 -31 -25 -40 -25 -14 0 -16 19 -16 160
l0 160 -24 0 c-13 0 -31 3 -40 6 -14 6 -16 -35 -16 -415z"/>
<path d="M3312 2728 c-7 -7 -20 -13 -29 -13 -14 0 -16 -11 -14 -67 2 -60 0
-68 -20 -78 -12 -7 -41 -10 -65 -7 l-44 5 0 -34 0 -34 59 0 c44 0 60 -4 65
-16 3 -9 6 -110 6 -225 0 -115 4 -209 9 -209 5 0 11 -9 14 -21 3 -11 15 -23
26 -26 12 -3 21 -9 21 -14 0 -5 36 -9 80 -9 l80 0 0 28 c0 26 -2 27 -42 24
-54 -4 -98 12 -105 38 -3 11 -9 20 -14 20 -6 0 -8 86 -7 203 l3 202 83 3 82 3
0 32 0 32 -61 -3 c-106 -6 -108 -5 -111 94 -2 69 -5 83 -16 72z m165 -194 c-3
-3 -12 -4 -19 -1 -8 3 -5 6 6 6 11 1 17 -2 13 -5z"/>
<path d="M1790 2548 c0 -10 5 -18 10 -18 6 0 10 -17 10 -37 1 -21 7 -49 15
-63 8 -14 14 -37 15 -52 0 -16 5 -28 10 -28 6 0 10 -15 10 -32 1 -18 7 -44 15
-58 8 -14 14 -37 15 -52 0 -16 5 -28 10 -28 6 0 10 -15 10 -32 0 -18 7 -42 15
-52 8 -11 15 -34 15 -50 1 -47 21 -66 69 -66 34 0 41 3 41 19 0 11 5 23 10 26
6 3 10 17 10 29 0 13 7 37 15 52 8 16 15 39 15 52 0 12 4 22 9 22 5 0 11 17
14 38 6 46 29 125 39 132 3 3 8 21 10 40 3 30 7 35 31 38 19 2 29 -2 33 -15 3
-10 9 -27 13 -38 21 -56 41 -125 41 -143 0 -12 5 -24 10 -27 6 -3 10 -14 10
-23 0 -9 7 -30 15 -46 8 -15 15 -41 15 -57 0 -16 5 -29 10 -29 6 0 10 -9 10
-19 0 -41 11 -51 56 -51 40 0 44 3 49 28 3 15 12 47 20 72 8 25 15 55 15 67 0
12 5 25 10 28 6 3 10 18 10 33 0 15 7 36 15 46 8 11 15 34 15 52 0 18 5 36 10
39 6 3 10 19 10 34 0 15 7 36 15 47 8 10 15 36 15 56 0 20 4 38 9 40 5 2 11
12 13 22 2 16 -3 20 -27 20 -25 0 -30 -4 -31 -24 -1 -13 -7 -26 -13 -28 -6 -2
-11 -21 -11 -42 0 -21 -4 -41 -9 -44 -5 -4 -12 -24 -16 -46 -4 -22 -11 -40
-16 -40 -5 0 -9 -18 -9 -39 0 -22 -4 -42 -9 -46 -6 -3 -13 -26 -17 -50 -3 -25
-10 -45 -15 -45 -5 0 -9 -10 -9 -23 0 -36 -18 -48 -46 -30 -19 12 -24 24 -24
59 0 24 -4 44 -10 44 -5 0 -10 13 -10 29 0 16 -7 36 -15 45 -8 8 -15 26 -15
40 0 15 -4 34 -9 44 -14 28 -41 118 -41 136 0 9 -7 27 -15 39 -12 18 -22 22
-50 19 -30 -4 -35 -8 -41 -38 -3 -19 -10 -34 -15 -34 -5 0 -9 -17 -9 -37 0
-21 -7 -47 -15 -57 -8 -11 -15 -32 -15 -47 0 -15 -4 -31 -10 -34 -5 -3 -10
-18 -10 -33 0 -15 -7 -36 -15 -46 -8 -11 -15 -32 -15 -48 0 -15 -4 -28 -10
-28 -5 0 -10 -11 -10 -24 0 -28 -24 -40 -51 -26 -14 8 -19 21 -19 55 0 25 -3
45 -8 45 -9 0 -31 79 -39 138 -3 23 -9 42 -14 42 -5 0 -9 10 -9 23 0 12 -7 35
-15 51 -8 15 -15 43 -15 61 0 31 -2 33 -40 37 -33 3 -40 0 -40 -14z"/>
<path d="M2870 2565 c0 0 -1 -132 -3 -293 l-2 -292 33 0 33 0 -3 292 -3 291
-27 1 c-16 1 -28 2 -28 1z"/>
<path d="M1804 1275 c-4 -8 -3 -99 0 -203 19 -577 19 -652 4 -652 -9 0 -22 20
-32 48 -9 26 -23 60 -32 76 -8 15 -23 60 -34 100 -10 39 -28 96 -40 126 -30
79 -48 167 -65 319 -13 113 -19 139 -38 159 -18 19 -28 23 -57 18 -19 -4 -45
-6 -57 -6 -18 0 -23 -6 -23 -28 -1 -40 -17 -252 -49 -642 -11 -137 -15 -459
-5 -484 11 -28 66 -20 99 14 31 32 32 39 51 418 4 67 10 122 14 122 10 0 40
-63 40 -83 0 -9 4 -18 9 -21 5 -3 11 -16 14 -28 5 -24 70 -207 86 -243 5 -11
16 -40 26 -65 9 -25 21 -53 26 -62 5 -10 9 -24 9 -33 0 -50 113 -36 155 19 47
62 55 120 55 401 1 447 -6 687 -20 718 -11 22 -20 27 -51 27 -20 0 -40 -6 -43
-12 -5 -10 -7 -10 -12 0 -8 17 -23 15 -30 -3z"/>
<path d="M3678 1223 c-17 -21 -50 -122 -43 -133 3 -5 0 -21 -6 -37 -6 -15 -15
-64 -19 -108 -5 -44 -14 -127 -21 -185 -8 -80 -8 -149 0 -280 15 -217 38 -401
54 -428 10 -14 43 -16 52 -2 3 5 14 10 24 10 10 0 26 9 35 19 16 18 20 18 54
4 75 -31 174 2 253 84 48 50 66 78 95 153 27 69 20 376 -9 421 -9 13 -27 44
-40 69 -28 53 -79 77 -139 66 -57 -10 -84 -46 -121 -156 -9 -25 -24 -70 -35
-100 -11 -30 -28 -82 -37 -115 -9 -33 -23 -73 -30 -90 -8 -16 -16 -39 -19 -50
-3 -11 -3 30 1 90 9 158 9 242 1 310 -4 33 -3 74 2 90 9 31 17 121 26 288 l5
97 -34 0 c-20 0 -40 -7 -49 -17z m335 -528 c3 -17 10 -48 16 -70 18 -67 0
-245 -32 -315 -18 -40 -85 -128 -105 -139 -14 -7 -23 -5 -35 10 -9 10 -28 19
-42 19 -20 0 -25 5 -25 26 0 15 4 43 9 63 5 20 17 68 26 106 9 39 20 81 25 95
4 14 15 54 25 90 20 74 63 169 85 186 12 10 18 7 31 -15 9 -15 19 -40 22 -56z
m-386 -187 c-2 -29 -3 -6 -3 52 0 58 1 81 3 53 2 -29 2 -77 0 -105z m450 10
c-2 -13 -4 -5 -4 17 -1 22 1 32 4 23 2 -10 2 -28 0 -40z"/>
<path d="M3273 903 c-33 -6 -42 -23 -54 -109 -6 -43 -17 -94 -25 -113 -8 -18
-14 -45 -14 -58 0 -27 -35 -79 -44 -65 -9 15 -5 156 6 194 9 30 8 42 -6 63 -9
14 -23 25 -32 25 -27 0 -74 -30 -74 -48 0 -10 -4 -22 -9 -28 -25 -27 -34 -599
-10 -668 17 -49 41 -66 69 -48 11 6 26 12 33 12 33 0 47 35 48 116 0 90 13
208 30 274 6 25 13 64 16 88 6 52 28 56 48 8 15 -36 31 -46 74 -46 43 0 50 15
33 63 -9 26 -17 97 -21 181 -5 124 -8 140 -26 151 -11 6 -30 10 -42 8z m-146
-385 c-3 -8 -6 -5 -6 6 -1 11 2 17 5 13 3 -3 4 -12 1 -19z"/>
<path d="M4475 896 c-16 -6 -35 -16 -42 -22 -27 -26 -45 -91 -46 -169 -1 -71
2 -86 28 -135 16 -30 32 -57 35 -60 24 -23 63 -100 101 -198 16 -42 11 -107
-11 -130 -26 -27 -31 -27 -105 0 -55 19 -64 20 -90 7 -17 -8 -31 -24 -33 -36
-9 -65 196 -108 275 -57 12 8 28 14 34 14 20 0 65 57 79 99 10 31 10 50 1 85
-6 25 -11 61 -11 80 0 19 -4 38 -10 41 -5 3 -10 13 -10 22 0 9 -18 43 -41 76
-56 81 -89 146 -89 171 0 12 -5 27 -11 33 -8 8 -8 13 0 17 6 4 11 18 11 31 0
51 34 32 60 -33 21 -53 58 -62 103 -24 12 11 17 30 17 67 0 45 -4 55 -32 81
-53 49 -144 66 -213 40z"/>
<path d="M2418 875 c-71 -18 -110 -54 -153 -143 -42 -86 -56 -148 -62 -284 -5
-120 -4 -130 22 -205 37 -107 53 -131 110 -167 41 -27 146 -28 200 -2 125 59
147 131 149 507 1 132 -1 149 -18 168 -14 15 -29 21 -50 19 -34 -3 -33 1 -26
-123 5 -88 -23 -295 -52 -380 -26 -78 -61 -127 -83 -119 -18 7 -63 77 -71 111
-4 15 -10 33 -14 38 -8 10 -21 166 -20 234 1 47 75 196 120 241 20 20 51 40
68 43 44 9 44 42 0 55 -60 18 -73 19 -120 7z"/>
</g>
</svg>
